# xmcd
#
# Track frame offsets:
# 150
# 13548
# 26121
# 38079
# 52492
# 67495
# 85340
# 100596
# 112706
# 126567
# 136995
# 156623
# 167559
# 180787
# 195660
# 207230
#
# Disc length: 2893 seconds
#
#
# Revision: 0
# Processed by: cddbd v1.5.1PL0 Copyright (c) Steve Scherf et al.
# Submitted via: FreeRIP 2.941 
#
DISCID=e20b4b10
DTITLE=Kenny Rogers - Kenny Rogers and the first edition
DYEAR=2003
DGENRE=Country
TTITLE0=Ruby don't take your love to town
TTITLE1=Reuben James
TTITLE2=Me and Bobby McGee
TTITLE3=Sunshine
TTITLE4=Just dropped In
TTITLE5=Something's burning
TTITLE6=For the Good times
TTITLE7=Elvira
TTITLE8=Loser
TTITLE9=Ticket to nowhere
TTITLE10=Lay it Down
TTITLE11=Always Leaving, always Gone
TTITLE12=Shine on Ruby Mountain
TTITLE13=All God's lonely chieldren
TTITLE14=Girl, get a hold of yourself
TTITLE15=New design
EXTD=
EXTT0=
EXTT1=
EXTT2=
EXTT3=
EXTT4=
EXTT5=
EXTT6=
EXTT7=
EXTT8=
EXTT9=
EXTT10=
EXTT11=
EXTT12=
EXTT13=
EXTT14=
EXTT15=
PLAYORDER=
